<?xml version="1.0" encoding="UTF-8"?>
<svg xmlns="http://www.w3.org/2000/svg" xmlns:xlink="http://www.w3.org/1999/xlink" width="5250" height="2700" viewBox="3200 100 5250 2700">
<rect x="-525" y="-370" width="5000" height="1240" fill="transparent" fill-opacity="1"/>
<path fill-rule="evenodd" fill="rgb(100%, 100%, 100%)" fill-opacity="1" d="M 4295.988281 496.371094 C 4293.941406 493.980469 4291.910156 491.558594 4289.839844 489.191406 C 4275.28125 472.550781 4261.039062 455.640625 4249.199219 436.890625 C 4243.058594 427.179688 4237.789062 417.019531 4235.480469 405.671875 C 4234.039062 398.558594 4233.378906 391.128906 4240.28125 386.191406 C 4246.929688 381.421875 4253.890625 383.429688 4260.429688 386.859375 C 4272.28125 393.050781 4282.359375 401.640625 4291.519531 411.191406 C 4327.570312 448.820312 4362.089844 487.78125 4392.960938 529.820312 C 4398.25 537.03125 4404.039062 543.609375 4410.921875 549.398438 C 4421.960938 558.710938 4431.070312 569.5 4427.75 585.359375 C 4424.289062 601.890625 4411.078125 608.308594 4396.628906 612.128906 C 4371.269531 618.828125 4345.101562 621.03125 4319.210938 624.710938 C 4298.839844 627.621094 4278.449219 630.320312 4258.089844 633.21875 C 4244.371094 635.171875 4230.820312 635.148438 4217.25 631.730469 C 4209.878906 629.871094 4202.21875 629.269531 4194.761719 627.789062 C 4183.660156 625.570312 4176.960938 619.398438 4175.71875 610.691406 C 4174.410156 601.519531 4179.410156 593.898438 4189.648438 588.460938 C 4217.339844 573.730469 4246.851562 566.578125 4278.179688 566.679688 C 4281.980469 566.691406 4285.769531 566.109375 4289.558594 565.710938 C 4290.25 565.640625 4290.878906 565.121094 4291.519531 564.828125 C 4291.359375 563.140625 4290.140625 562.640625 4288.941406 562.300781 C 4231.378906 546.28125 4179.410156 516.308594 4123.589844 496 C 4049.800781 469.140625 3974.628906 447.890625 3895.96875 441.78125 C 3779.050781 432.699219 3664.179688 444.148438 3551.558594 477.480469 C 3487.519531 496.429688 3425.75 520.710938 3367.03125 552.601562 C 3352.949219 560.230469 3339.058594 568.160156 3326.148438 577.691406 C 3323.578125 579.589844 3321.039062 581.46875 3317.898438 579.46875 C 3314.308594 577.179688 3314.328125 573.5 3315.320312 569.910156 C 3317.558594 561.871094 3322.539062 555.410156 3327.910156 549.261719 C 3344.960938 529.738281 3365.300781 514.28125 3387.480469 501.058594 C 3434.859375 472.808594 3485.640625 452.421875 3537.710938 434.671875 C 3632.75 402.269531 3730.601562 385.699219 3830.710938 382.621094 C 3943.589844 379.160156 4052.679688 399.558594 4158.511719 438.160156 C 4186.648438 448.441406 4214.359375 459.921875 4242.308594 470.78125 C 4260.730469 477.941406 4278.46875 486.488281 4295.988281 496.371094 "/>
</svg>
